<svg width="8" height="15" viewBox="0 0 8 15" fill="none" xmlns="http://www.w3.org/2000/svg">
<path d="M8 7.5C8 7.29839 7.9182 7.1129 7.76278 6.96774L1.28425 0.709677C1.13701 0.572581 0.957055 0.5 0.744376 0.5C0.327198 0.5 0 0.814516 0 1.23387C0 1.43548 0.0817996 1.62097 0.212679 1.75806L6.16769 7.5L0.212679 13.2419C0.0817996 13.379 0 13.5565 0 13.7661C0 14.1855 0.327198 14.5 0.744376 14.5C0.957055 14.5 1.13701 14.4274 1.28425 14.2823L7.76278 8.03226C7.9182 7.87903 8 7.70161 8 7.5Z" fill="#3A3A3A"/>
</svg>
