<svg width="22" height="22" viewBox="0 0 22 22" fill="none" xmlns="http://www.w3.org/2000/svg">
<path fill-rule="evenodd" clip-rule="evenodd" d="M19.8002 11.0002C19.8002 13.3341 18.8731 15.5724 17.2227 17.2227C15.5724 18.8731 13.3341 19.8002 11.0002 19.8002C8.66629 19.8002 6.42798 18.8731 4.77766 17.2227C3.12734 15.5724 2.2002 13.3341 2.2002 11.0002C2.2002 8.66629 3.12734 6.42798 4.77766 4.77766C6.42798 3.12734 8.66629 2.2002 11.0002 2.2002C13.3341 2.2002 15.5724 3.12734 17.2227 4.77766C18.8731 6.42798 19.8002 8.66629 19.8002 11.0002ZM11.0002 5.5002C11.219 5.5002 11.4288 5.58711 11.5836 5.74183C11.7383 5.89655 11.8252 6.10639 11.8252 6.3252V11.2752C11.8252 11.494 11.7383 11.7038 11.5836 11.8586C11.4288 12.0133 11.219 12.1002 11.0002 12.1002C10.7814 12.1002 10.5716 12.0133 10.4168 11.8586C10.2621 11.7038 10.1752 11.494 10.1752 11.2752V6.3252C10.1752 6.10639 10.2621 5.89655 10.4168 5.74183C10.5716 5.58711 10.7814 5.5002 11.0002 5.5002ZM11.0002 16.5002C11.2919 16.5002 11.5717 16.3843 11.778 16.178C11.9843 15.9717 12.1002 15.6919 12.1002 15.4002C12.1002 15.1085 11.9843 14.8287 11.778 14.6224C11.5717 14.4161 11.2919 14.3002 11.0002 14.3002C10.7085 14.3002 10.4287 14.4161 10.2224 14.6224C10.0161 14.8287 9.9002 15.1085 9.9002 15.4002C9.9002 15.6919 10.0161 15.9717 10.2224 16.178C10.4287 16.3843 10.7085 16.5002 11.0002 16.5002Z" fill="#3A3A3A"/>
</svg>
