<svg width="289" height="58" viewBox="0 0 289 58" fill="none" xmlns="http://www.w3.org/2000/svg">
<path d="M11.57 17.98H10.324V5.744H11.57V17.98ZM7.986 7.046C7.94867 8.922 7.426 10.5833 6.418 12.03C5.41933 13.4673 4.04733 14.662 2.302 15.614L1.546 14.676C2.99267 13.9853 4.17333 13.0473 5.088 11.862C6.012 10.6673 6.53 9.412 6.642 8.096H2.092V7.046H7.986ZM20.5893 10.504C20.5893 10.9427 20.3699 11.302 19.9313 11.582C19.4926 11.862 18.9186 12.03 18.2093 12.086V12.814C19.8426 12.7207 20.9859 12.6273 21.6393 12.534L21.7513 13.5C20.4073 13.6587 19.0913 13.7707 17.8033 13.836C16.1419 13.9387 14.8073 13.99 13.7993 13.99L13.6173 12.926C15.0546 12.926 16.1699 12.9073 16.9633 12.87V12.086C16.2819 12.0113 15.7313 11.8387 15.3113 11.568C14.9006 11.288 14.6953 10.9333 14.6953 10.504C14.6953 9.99067 14.9706 9.58467 15.5213 9.286C16.0813 8.98733 16.7813 8.838 17.6213 8.838C18.4799 8.838 19.1893 8.98733 19.7493 9.286C20.3093 9.58467 20.5893 9.99067 20.5893 10.504ZM15.4653 14.48H23.7113V18.036H22.4653V15.488H15.4653V14.48ZM23.7113 13.85H22.4793V5.744H23.7113V13.85ZM21.2333 8.53H13.9953V7.578H21.2333V8.53ZM19.3293 10.504C19.3293 10.28 19.1706 10.1027 18.8533 9.972C18.5359 9.832 18.1253 9.762 17.6213 9.762C17.1266 9.762 16.7206 9.832 16.4033 9.972C16.0953 10.1027 15.9413 10.28 15.9413 10.504C15.9413 10.728 16.0953 10.9053 16.4033 11.036C16.7206 11.1573 17.1266 11.218 17.6213 11.218C18.1253 11.218 18.5359 11.1527 18.8533 11.022C19.1706 10.8913 19.3293 10.7187 19.3293 10.504ZM19.3293 6.962H15.9273V5.982H19.3293V6.962ZM28.9743 17.84L32.2223 6.192H33.3003L30.0523 17.84H28.9743ZM49.2135 11.624H47.2535V17.98H46.0075V5.744H47.2535V10.602H49.2135V11.624ZM38.7695 14.074C38.2468 13.2713 37.9855 12.226 37.9855 10.938C37.9855 9.65 38.2468 8.60933 38.7695 7.816C39.2922 7.01333 40.0668 6.612 41.0935 6.612C42.1202 6.612 42.8902 7.01333 43.4035 7.816C43.9262 8.60933 44.1875 9.65467 44.1875 10.952C44.1875 12.2307 43.9262 13.2713 43.4035 14.074C42.8902 14.8673 42.1202 15.264 41.0935 15.264C40.0668 15.264 39.2922 14.8673 38.7695 14.074ZM42.9695 10.952C42.9695 9.972 42.8062 9.18333 42.4795 8.586C42.1528 7.97933 41.6908 7.676 41.0935 7.676C40.4962 7.676 40.0342 7.97467 39.7075 8.572C39.3902 9.16933 39.2315 9.96267 39.2315 10.952C39.2315 11.9227 39.3902 12.7067 39.7075 13.304C40.0342 13.9013 40.4962 14.2 41.0935 14.2C41.6908 14.2 42.1528 13.9013 42.4795 13.304C42.8062 12.7067 42.9695 11.9227 42.9695 10.952ZM60.0108 17.98H58.7648V5.744H60.0108V17.98ZM50.3508 10.98C50.3508 9.70133 50.6168 8.66533 51.1488 7.872C51.6808 7.06933 52.4648 6.668 53.5008 6.668C54.5368 6.668 55.3161 7.06933 55.8388 7.872C56.3708 8.66533 56.6368 9.706 56.6368 10.994C56.6368 12.282 56.3708 13.3273 55.8388 14.13C55.3161 14.9233 54.5368 15.32 53.5008 15.32C52.4648 15.32 51.6808 14.9187 51.1488 14.116C50.6168 13.3133 50.3508 12.268 50.3508 10.98ZM54.9148 13.36C55.2414 12.7627 55.4048 11.974 55.4048 10.994C55.4048 10.014 55.2414 9.22533 54.9148 8.628C54.5881 8.03067 54.1168 7.732 53.5008 7.732C52.8941 7.732 52.4274 8.03067 52.1008 8.628C51.7741 9.22533 51.6108 10.014 51.6108 10.994C51.6108 11.974 51.7741 12.7627 52.1008 13.36C52.4274 13.948 52.8941 14.242 53.5008 14.242C54.1168 14.242 54.5881 13.948 54.9148 13.36ZM72.068 17.98H70.822V5.744H72.068V17.98ZM63.864 13.864C66.3374 13.864 68.2087 13.738 69.478 13.486L69.646 14.508C68.3207 14.788 66.4447 14.928 64.018 14.928H62.646V6.934H68.498V7.942H63.864V13.864ZM74.9973 14.06C74.4653 13.2573 74.1993 12.2167 74.1993 10.938C74.1993 9.65933 74.4653 8.61867 74.9973 7.816C75.5293 7.01333 76.3133 6.612 77.3493 6.612C78.3013 6.612 79.034 6.95733 79.5473 7.648C80.07 8.32933 80.3733 9.23933 80.4573 10.378H82.9353V5.744H84.1813V17.98H82.9353V11.428H80.4573C80.3827 12.5853 80.084 13.514 79.5613 14.214C79.048 14.914 78.3107 15.264 77.3493 15.264C76.3133 15.264 75.5293 14.8627 74.9973 14.06ZM79.2393 10.952C79.2393 9.972 79.0713 9.18333 78.7353 8.586C78.4087 7.97933 77.9467 7.676 77.3493 7.676C76.7427 7.676 76.276 7.97467 75.9493 8.572C75.632 9.16933 75.4733 9.96267 75.4733 10.952C75.4733 11.9227 75.632 12.7067 75.9493 13.304C76.276 13.9013 76.7427 14.2 77.3493 14.2C77.9467 14.2 78.4087 13.9013 78.7353 13.304C79.0713 12.7067 79.2393 11.9227 79.2393 10.952Z" fill="#1A1A1A"/>
<path d="M1 29H288" stroke="#F4F4F4" stroke-linecap="round"/>
<path d="M255.878 14.556C256.545 14.9027 256.879 15.388 256.879 16.012C256.879 16.636 256.545 17.1213 255.878 17.468C255.211 17.8147 254.236 17.988 252.953 17.988C251.679 17.988 250.708 17.8103 250.041 17.455C249.374 17.1083 249.04 16.6273 249.04 16.012C249.04 15.3967 249.374 14.9157 250.041 14.569C250.708 14.2137 251.679 14.036 252.953 14.036C254.244 14.036 255.219 14.2093 255.878 14.556ZM257.581 10.929L257.1 11.878C256.225 11.7827 255.388 11.5617 254.591 11.215C253.802 10.8597 253.256 10.4393 252.953 9.954C252.658 10.448 252.125 10.8727 251.354 11.228C250.583 11.5747 249.742 11.7913 248.832 11.878L248.325 10.929C249.27 10.8857 250.128 10.6993 250.899 10.37C251.67 10.0407 252.147 9.63333 252.329 9.148H248.884V8.238H257.022V9.148H253.603C253.785 9.62467 254.27 10.0277 255.059 10.357C255.856 10.6863 256.697 10.877 257.581 10.929ZM258.088 13.516H247.831V12.58H252.355V11.137H253.512V12.58H258.088V13.516ZM252.953 14.985C252.112 14.985 251.445 15.076 250.951 15.258C250.466 15.44 250.223 15.6913 250.223 16.012C250.223 16.3413 250.466 16.597 250.951 16.779C251.436 16.9523 252.104 17.039 252.953 17.039C253.811 17.039 254.483 16.9523 254.968 16.779C255.462 16.597 255.709 16.3413 255.709 16.012C255.709 15.6913 255.462 15.44 254.968 15.258C254.483 15.076 253.811 14.985 252.953 14.985ZM254.786 7.588H251.107V6.665H254.786V7.588ZM264.86 16.61C263.846 16.61 263.023 16.3933 262.39 15.96L262.611 15.05C262.871 15.2147 263.187 15.3577 263.56 15.479C263.933 15.6003 264.284 15.661 264.613 15.661C265.289 15.661 265.818 15.4877 266.199 15.141C266.58 14.7857 266.771 14.3047 266.771 13.698C266.771 12.502 266.069 11.904 264.665 11.904C264.084 11.904 263.478 12.047 262.845 12.333L263.157 7.705H267.616V8.654H264.067L263.898 11.202C264.349 11.0807 264.756 11.02 265.12 11.02C266.021 11.02 266.719 11.2453 267.213 11.696C267.707 12.1467 267.954 12.8227 267.954 13.724C267.954 14.5387 267.672 15.2233 267.109 15.778C266.546 16.3327 265.796 16.61 264.86 16.61ZM272.646 16.61C271.667 16.61 270.878 16.2677 270.28 15.583C269.691 14.8897 269.396 13.8323 269.396 12.411V11.722C269.396 10.2747 269.7 9.22167 270.306 8.563C270.913 7.89567 271.697 7.562 272.659 7.562C273.604 7.562 274.367 7.89133 274.947 8.55C275.537 9.2 275.831 10.24 275.831 11.67V12.424C275.831 13.8453 275.537 14.8983 274.947 15.583C274.367 16.2677 273.6 16.61 272.646 16.61ZM272.646 15.674C273.314 15.674 273.812 15.427 274.141 14.933C274.479 14.439 274.648 13.6503 274.648 12.567V11.67C274.648 9.55533 273.985 8.498 272.659 8.498C271.299 8.498 270.618 9.525 270.618 11.579V12.502C270.618 14.6167 271.294 15.674 272.646 15.674ZM286.827 17.624H279.144V14.036H280.301V16.688H286.827V17.624ZM285.41 10.994H283.044V10.045H285.41V6.548H286.567V14.803H285.41V10.994ZM277.857 7.445H282.953C282.901 8.96167 282.424 10.2443 281.523 11.293C280.63 12.3417 279.421 13.087 277.896 13.529L277.311 12.593C278.49 12.2983 279.473 11.774 280.262 11.02C281.051 10.266 281.527 9.39067 281.692 8.394H277.857V7.445Z" fill="#3A3A3A"/>
<path d="M11.15 52.642C11.15 53.3513 10.7813 53.902 10.044 54.294C9.316 54.686 8.31267 54.882 7.034 54.882C5.76467 54.882 4.766 54.686 4.038 54.294C3.31 53.902 2.946 53.3513 2.946 52.642C2.946 51.942 3.31 51.396 4.038 51.004C4.77533 50.6027 5.774 50.402 7.034 50.402C8.294 50.402 9.29267 50.6027 10.03 51.004C10.7767 51.396 11.15 51.942 11.15 52.642ZM7.034 51.424C6.17533 51.424 5.48933 51.536 4.976 51.76C4.472 51.9747 4.22 52.2687 4.22 52.642C4.22 53.034 4.472 53.3373 4.976 53.552C5.48 53.7667 6.166 53.874 7.034 53.874C7.92067 53.874 8.616 53.7667 9.12 53.552C9.624 53.3373 9.876 53.034 9.876 52.642C9.876 52.2593 9.61933 51.9607 9.106 51.746C8.602 51.5313 7.91133 51.424 7.034 51.424ZM12.858 47.154H11.038V50.29H9.82V42.744H11.038V46.132H12.858V47.154ZM9.134 49.114C8.06067 49.2727 6.75867 49.3893 5.228 49.464C3.184 49.5293 1.92867 49.562 1.462 49.562L1.294 48.526C2.37667 48.526 3.20733 48.5167 3.786 48.498V46.23H5.032V48.47C6.88933 48.3953 8.21 48.288 8.994 48.148L9.134 49.114ZM8.126 43.514C8.126 45.166 8.00933 46.4727 7.776 47.434L6.572 47.252C6.75867 46.4587 6.852 45.544 6.852 44.508H2.106V43.514H8.126ZM24.6913 53.202H13.6453V52.18H17.8453V48.064H19.0913V52.18H24.6913V53.202ZM23.2633 43.878V45.754C23.2353 47.742 23.0626 49.408 22.7453 50.752C22.2226 50.6587 21.8259 50.5933 21.5553 50.556C21.8446 49.4173 21.9893 48.0173 21.9893 46.356V44.886H14.7793V43.878H23.2633ZM28.9743 54.84L32.2223 43.192H33.3003L30.0523 54.84H28.9743ZM43.9215 51.914H38.1955V43.976H43.9215V51.914ZM42.6755 50.92V44.984H39.4275V50.92H42.6755ZM49.2135 48.624H47.2535V54.98H46.0075V42.744H47.2535V47.602H49.2135V48.624ZM55.0968 44.158C55.0781 47.8447 53.5801 50.6447 50.6028 52.558L49.8048 51.662C51.3821 50.7287 52.5068 49.5107 53.1788 48.008L50.1548 48.386L49.9308 47.322L53.5428 47.014C53.7201 46.37 53.8228 45.754 53.8508 45.166H50.3788V44.158H55.0968ZM57.8688 54.378H56.6928V48.498H54.8588V47.49H56.6928V43.024H57.8688V54.378ZM60.2488 54.98H59.0588V42.744H60.2488V54.98ZM71.088 50.906C71.816 51.326 72.18 51.8953 72.18 52.614C72.18 53.3327 71.816 53.902 71.088 54.322C70.3694 54.742 69.3567 54.952 68.05 54.952C66.7527 54.952 65.74 54.742 65.012 54.322C64.2934 53.902 63.934 53.3327 63.934 52.614C63.934 51.8953 64.2934 51.326 65.012 50.906C65.74 50.486 66.7527 50.276 68.05 50.276C69.3567 50.276 70.3694 50.486 71.088 50.906ZM69.59 48.162L69.716 49.142C68.54 49.394 66.5894 49.52 63.864 49.52H62.702V43.64H68.456V44.648H63.948V46.034H68.274V47.028H63.948V48.512H64.41C66.7434 48.512 68.47 48.3953 69.59 48.162ZM70.892 52.614C70.892 52.194 70.64 51.8673 70.136 51.634C69.6414 51.4007 68.946 51.284 68.05 51.284C67.1727 51.284 66.482 51.4053 65.978 51.648C65.4834 51.8813 65.236 52.2033 65.236 52.614C65.236 53.0247 65.4834 53.3467 65.978 53.58C66.482 53.804 67.1727 53.916 68.05 53.916C68.946 53.916 69.6414 53.804 70.136 53.58C70.64 53.3467 70.892 53.0247 70.892 52.614ZM72.068 42.744V50.374H70.822V42.744H72.068Z" fill="#1A1A1A"/>
<path d="M256.411 51.556C257.078 51.9027 257.412 52.388 257.412 53.012C257.412 53.636 257.078 54.1213 256.411 54.468C255.744 54.8147 254.769 54.988 253.486 54.988C252.212 54.988 251.241 54.8103 250.574 54.455C249.907 54.1083 249.573 53.6273 249.573 53.012C249.573 52.3967 249.907 51.9157 250.574 51.569C251.241 51.2137 252.212 51.036 253.486 51.036C254.777 51.036 255.752 51.2093 256.411 51.556ZM258.114 47.929L257.633 48.878C256.758 48.7827 255.921 48.5617 255.124 48.215C254.335 47.8597 253.789 47.4393 253.486 46.954C253.191 47.448 252.658 47.8727 251.887 48.228C251.116 48.5747 250.275 48.7913 249.365 48.878L248.858 47.929C249.803 47.8857 250.661 47.6993 251.432 47.37C252.203 47.0407 252.68 46.6333 252.862 46.148H249.417V45.238H257.555V46.148H254.136C254.318 46.6247 254.803 47.0277 255.592 47.357C256.389 47.6863 257.23 47.877 258.114 47.929ZM258.621 50.516H248.364V49.58H252.888V48.137H254.045V49.58H258.621V50.516ZM253.486 51.985C252.645 51.985 251.978 52.076 251.484 52.258C250.999 52.44 250.756 52.6913 250.756 53.012C250.756 53.3413 250.999 53.597 251.484 53.779C251.969 53.9523 252.637 54.039 253.486 54.039C254.344 54.039 255.016 53.9523 255.501 53.779C255.995 53.597 256.242 53.3413 256.242 53.012C256.242 52.6913 255.995 52.44 255.501 52.258C255.016 52.076 254.344 51.985 253.486 51.985ZM255.319 44.588H251.64V43.665H255.319V44.588ZM265.575 53.584C264.579 53.584 263.777 53.376 263.17 52.96L263.404 52.076C263.647 52.2407 263.959 52.3793 264.34 52.492C264.73 52.596 265.09 52.648 265.419 52.648C266.113 52.648 266.646 52.5007 267.018 52.206C267.4 51.9113 267.59 51.4953 267.59 50.958C267.59 50.4293 267.404 50.035 267.031 49.775C266.659 49.5063 266.143 49.372 265.484 49.372H264.639V48.423H265.406C265.97 48.4143 266.42 48.28 266.758 48.02C267.096 47.7513 267.265 47.3873 267.265 46.928C267.265 45.992 266.693 45.524 265.549 45.524C264.986 45.524 264.349 45.7233 263.638 46.122L263.469 45.212C263.747 45.0387 264.106 44.887 264.548 44.757C264.999 44.627 265.415 44.562 265.796 44.562C266.602 44.562 267.244 44.757 267.72 45.147C268.206 45.5283 268.448 46.0613 268.448 46.746C268.448 47.734 267.898 48.4143 266.797 48.787C268.106 49.0297 268.76 49.762 268.76 50.984C268.76 51.764 268.47 52.3923 267.889 52.869C267.317 53.3457 266.546 53.584 265.575 53.584ZM272.961 44.562C273.949 44.562 274.712 44.8913 275.249 45.55C275.786 46.2087 276.055 47.1577 276.055 48.397V48.969C276.055 50.503 275.756 51.66 275.158 52.44C274.56 53.22 273.719 53.61 272.636 53.61C272.211 53.61 271.804 53.558 271.414 53.454C271.024 53.3413 270.721 53.2113 270.504 53.064L270.79 52.232C271.275 52.518 271.869 52.661 272.571 52.661C273.308 52.661 273.867 52.414 274.248 51.92C274.638 51.4173 274.855 50.581 274.898 49.411C274.335 50.035 273.624 50.347 272.766 50.347C272.003 50.347 271.366 50.0957 270.855 49.593C270.352 49.0903 270.101 48.4273 270.101 47.604C270.101 46.7373 270.357 46.0137 270.868 45.433C271.379 44.8523 272.077 44.562 272.961 44.562ZM272.974 45.485C272.428 45.485 271.999 45.6713 271.687 46.044C271.384 46.4167 271.232 46.9063 271.232 47.513C271.232 48.1457 271.392 48.6223 271.713 48.943C272.042 49.255 272.48 49.411 273.026 49.411C273.39 49.411 273.741 49.307 274.079 49.099C274.426 48.891 274.699 48.6483 274.898 48.371V48.124C274.898 47.3007 274.738 46.655 274.417 46.187C274.105 45.719 273.624 45.485 272.974 45.485ZM286.827 54.624H279.144V51.036H280.301V53.688H286.827V54.624ZM285.41 47.994H283.044V47.045H285.41V43.548H286.567V51.803H285.41V47.994ZM277.857 44.445H282.953C282.901 45.9617 282.424 47.2443 281.523 48.293C280.63 49.3417 279.421 50.087 277.896 50.529L277.311 49.593C278.49 49.2983 279.473 48.774 280.262 48.02C281.051 47.266 281.527 46.3907 281.692 45.394H277.857V44.445Z" fill="#3A3A3A"/>
</svg>
