<svg width="20" height="20" viewBox="0 0 20 20" fill="none" xmlns="http://www.w3.org/2000/svg">
<path fill-rule="evenodd" clip-rule="evenodd" d="M10 20C4.52381 20 0 15.4762 0 10C0 4.52381 4.51613 0 9.99232 0C15.4685 0 20 4.52381 20 10C20 15.4762 15.4762 20 10 20ZM8.77112 15.023C9.0553 15.023 9.30107 14.8925 9.48541 14.6083L14.6467 6.52074C14.7619 6.35177 14.8618 6.14439 14.8618 5.96006C14.8618 5.553 14.5008 5.29954 14.1244 5.29954C13.9017 5.29954 13.679 5.43011 13.51 5.69124L8.73272 13.2872L6.19048 10.0998C5.99078 9.84639 5.78341 9.75422 5.53763 9.75422C5.16129 9.75422 4.84639 10.0538 4.84639 10.4608C4.84639 10.6528 4.9232 10.8602 5.05376 11.0215L8.01843 14.616C8.25653 14.9078 8.48694 15.023 8.77112 15.023Z" fill="#FFC046"/>
</svg>
